<svg width="227" height="182" viewBox="0 0 227 182" fill="none" xmlns="http://www.w3.org/2000/svg">
<path d="M90.7459 181.492C140.863 181.492 181.492 140.863 181.492 90.7459C181.492 40.6283 140.863 0 90.7459 0C40.6283 0 0 40.6283 0 90.7459C0 140.863 40.6283 181.492 90.7459 181.492Z" fill="#F3F3F3"/>
<g filter="url(#filter0_d_48_6741)">
<path d="M49.6083 41.1394H212.951C214.555 41.1394 216.094 41.7768 217.229 42.9113C218.363 44.0459 219.001 45.5846 219.001 47.1891V77.4377C219.001 79.0422 218.363 80.581 217.229 81.7155C216.094 82.8501 214.555 83.4875 212.951 83.4875H49.6083C48.0038 83.4875 46.4651 82.8501 45.3305 81.7155C44.196 80.581 43.5586 79.0422 43.5586 77.4377V47.1891C43.5586 45.5846 44.196 44.0459 45.3305 42.9113C46.4651 41.7768 48.0038 41.1394 49.6083 41.1394V41.1394Z" fill="white"/>
</g>
<path d="M127.043 50.8188H95.5849C93.5802 50.8188 91.9551 52.444 91.9551 54.4487C91.9551 56.4534 93.5802 58.0785 95.5849 58.0785H127.043C129.048 58.0785 130.673 56.4534 130.673 54.4487C130.673 52.444 129.048 50.8188 127.043 50.8188Z" fill="#CCCCCC"/>
<path d="M148.822 66.5481H95.5849C93.5802 66.5481 91.9551 68.1732 91.9551 70.1779C91.9551 72.1826 93.5802 73.8078 95.5849 73.8078H148.822C150.827 73.8078 152.452 72.1826 152.452 70.1779C152.452 68.1732 150.827 66.5481 148.822 66.5481Z" fill="#F3F3F3"/>
<path d="M82.2759 62.3135C82.2759 52.6241 74.4211 44.7693 64.7317 44.7693C55.0423 44.7693 47.1875 52.6241 47.1875 62.3135C47.1875 72.0029 55.0423 79.8577 64.7317 79.8577C74.4211 79.8577 82.2759 72.0029 82.2759 62.3135Z" fill="#B2B2B2"/>
<path d="M63.6414 67.9925C65.1433 67.9923 66.602 67.4897 67.7854 66.5648L71.506 70.2854L72.7026 69.0887L68.9808 65.3669C69.9159 64.158 70.414 62.6679 70.3938 61.1397C70.3736 59.6114 69.8364 58.1351 68.8698 56.9512C67.9031 55.7673 66.564 54.9458 65.0707 54.6204C63.5773 54.295 62.0178 54.485 60.6462 55.1594C59.2747 55.8339 58.172 56.9529 57.5179 58.3343C56.8638 59.7156 56.6968 61.2778 57.0442 62.7662C57.3916 64.2546 58.2328 65.5814 59.4308 66.5305C60.6288 67.4796 62.113 67.9949 63.6414 67.9925ZM63.6414 56.1423C64.6464 56.1423 65.6289 56.4404 66.4646 56.9987C67.3003 57.5571 67.9517 58.3508 68.3363 59.2794C68.7209 60.2079 68.8216 61.2297 68.6255 62.2155C68.4294 63.2013 67.9454 64.1067 67.2347 64.8174C66.524 65.5281 65.6185 66.0121 64.6328 66.2082C63.647 66.4043 62.6252 66.3037 61.6966 65.919C60.7681 65.5344 59.9744 64.8831 59.416 64.0474C58.8576 63.2117 58.5596 62.2292 58.5596 61.2241C58.5596 59.8763 59.095 58.5837 60.048 57.6307C61.001 56.6777 62.2936 56.1423 63.6414 56.1423Z" fill="white"/>
<g filter="url(#filter1_d_48_6741)">
<path d="M194.8 95.5854H31.4579C28.1168 95.5854 25.4082 98.294 25.4082 101.635V131.884C25.4082 135.225 28.1168 137.934 31.4579 137.934H194.8C198.142 137.934 200.85 135.225 200.85 131.884V101.635C200.85 98.294 198.142 95.5854 194.8 95.5854Z" fill="white"/>
</g>
<path d="M108.895 105.265H77.4365C75.4318 105.265 73.8066 106.89 73.8066 108.895C73.8066 110.899 75.4318 112.525 77.4365 112.525H108.895C110.9 112.525 112.525 110.899 112.525 108.895C112.525 106.89 110.9 105.265 108.895 105.265Z" fill="#CCCCCC"/>
<path d="M130.674 120.994H77.4365C75.4318 120.994 73.8066 122.619 73.8066 124.624C73.8066 126.629 75.4318 128.254 77.4365 128.254H130.674C132.679 128.254 134.304 126.629 134.304 124.624C134.304 122.619 132.679 120.994 130.674 120.994Z" fill="#F3F3F3"/>
<path d="M64.1255 116.76C64.1255 107.07 56.2707 99.2153 46.5813 99.2153C36.8919 99.2153 29.0371 107.07 29.0371 116.76C29.0371 126.449 36.8919 134.304 46.5813 134.304C56.2707 134.304 64.1255 126.449 64.1255 116.76Z" fill="#B2B2B2"/>
<path d="M45.491 122.439C46.9929 122.439 48.4517 121.936 49.635 121.011L53.3556 124.732L54.5522 123.535L50.8305 119.813C51.7655 118.605 52.2636 117.114 52.2434 115.586C52.2232 114.058 51.686 112.582 50.7194 111.398C49.7527 110.214 48.4136 109.392 46.9203 109.067C45.4269 108.742 43.8674 108.932 42.4959 109.606C41.1243 110.28 40.0216 111.399 39.3675 112.781C38.7134 114.162 38.5464 115.724 38.8938 117.213C39.2412 118.701 40.0824 120.028 41.2804 120.977C42.4784 121.926 43.9626 122.441 45.491 122.439ZM45.491 110.589C46.496 110.589 47.4786 110.887 48.3142 111.445C49.1499 112.004 49.8013 112.797 50.1859 113.726C50.5705 114.654 50.6712 115.676 50.4751 116.662C50.279 117.648 49.795 118.553 49.0843 119.264C48.3736 119.975 47.4681 120.459 46.4824 120.655C45.4966 120.851 44.4748 120.75 43.5463 120.366C42.6177 119.981 41.824 119.33 41.2656 118.494C40.7072 117.658 40.4092 116.676 40.4092 115.671C40.4092 114.323 40.9446 113.03 41.8976 112.077C42.8506 111.124 44.1432 110.589 45.491 110.589Z" fill="white"/>
<defs>
<filter id="filter0_d_48_6741" x="41.5586" y="39.1394" width="185.441" height="52.3481" filterUnits="userSpaceOnUse" color-interpolation-filters="sRGB">
<feFlood flood-opacity="0" result="BackgroundImageFix"/>
<feColorMatrix in="SourceAlpha" type="matrix" values="0 0 0 0 0 0 0 0 0 0 0 0 0 0 0 0 0 0 127 0" result="hardAlpha"/>
<feOffset dx="3" dy="3"/>
<feGaussianBlur stdDeviation="2.5"/>
<feColorMatrix type="matrix" values="0 0 0 0 0.230539 0 0 0 0 0.370572 0 0 0 0 0.482993 0 0 0 0.1 0"/>
<feBlend mode="normal" in2="BackgroundImageFix" result="effect1_dropShadow_48_6741"/>
<feBlend mode="normal" in="SourceGraphic" in2="effect1_dropShadow_48_6741" result="shape"/>
</filter>
<filter id="filter1_d_48_6741" x="23.4082" y="93.5854" width="185.441" height="52.3481" filterUnits="userSpaceOnUse" color-interpolation-filters="sRGB">
<feFlood flood-opacity="0" result="BackgroundImageFix"/>
<feColorMatrix in="SourceAlpha" type="matrix" values="0 0 0 0 0 0 0 0 0 0 0 0 0 0 0 0 0 0 127 0" result="hardAlpha"/>
<feOffset dx="3" dy="3"/>
<feGaussianBlur stdDeviation="2.5"/>
<feColorMatrix type="matrix" values="0 0 0 0 0.230539 0 0 0 0 0.370572 0 0 0 0 0.482993 0 0 0 0.1 0"/>
<feBlend mode="normal" in2="BackgroundImageFix" result="effect1_dropShadow_48_6741"/>
<feBlend mode="normal" in="SourceGraphic" in2="effect1_dropShadow_48_6741" result="shape"/>
</filter>
</defs>
</svg>
