<svg width="248" height="175" viewBox="0 0 248 175" fill="none" xmlns="http://www.w3.org/2000/svg">
<path d="M200 0H50C43.0965 0 37.5 5.59646 37.5 12.5V162.5C37.5 169.404 43.0965 175 50 175H200C206.904 175 212.5 169.404 212.5 162.5V12.5C212.5 5.59646 206.904 0 200 0Z" fill="#F3F3F3"/>
<g filter="url(#filter0_d_48_6263)">
<path d="M64.9981 67.5002H233.749C235.406 67.5002 236.996 68.1587 238.168 69.3308C239.34 70.5029 239.999 72.0927 239.999 73.7503V105C239.999 106.658 239.34 108.248 238.168 109.42C236.996 110.592 235.406 111.25 233.749 111.25H64.9981C63.3405 111.25 61.7507 110.592 60.5786 109.42C59.4065 108.248 58.748 106.658 58.748 105V73.7503C58.748 72.0927 59.4065 70.5029 60.5786 69.3308C61.7507 68.1587 63.3405 67.5002 64.9981 67.5002V67.5002Z" fill="white"/>
</g>
<path d="M157.498 77.5005H124.998C122.927 77.5005 121.248 79.1794 121.248 81.2505C121.248 83.3216 122.927 85.0005 124.998 85.0005H157.498C159.569 85.0005 161.248 83.3216 161.248 81.2505C161.248 79.1794 159.569 77.5005 157.498 77.5005Z" fill="#CCCCCC"/>
<path d="M179.998 93.751H124.998C122.927 93.751 121.248 95.4299 121.248 97.501C121.248 99.5721 122.927 101.251 124.998 101.251H179.998C182.069 101.251 183.748 99.5721 183.748 97.501C183.748 95.4299 182.069 93.751 179.998 93.751Z" fill="#F3F3F3"/>
<path d="M96.8731 101.251C103.431 101.251 108.748 95.9339 108.748 89.3755C108.748 82.8171 103.431 77.5005 96.8731 77.5005C90.3147 77.5005 84.998 82.8171 84.998 89.3755C84.998 95.9339 90.3147 101.251 96.8731 101.251Z" fill="#B2B2B2"/>
<path d="M92.9893 92H92.174L94.006 86.9091H94.8935L96.7255 92H95.9102L94.4709 87.8338H94.4311L92.9893 92ZM93.1261 90.0064H95.771V90.6527H93.1261V90.0064ZM97.4607 92V86.9091H99.325C99.6863 86.9091 99.9854 86.9687 100.222 87.0881C100.459 87.2057 100.637 87.3656 100.754 87.5678C100.872 87.7683 100.931 87.9946 100.931 88.2464C100.931 88.4586 100.892 88.6375 100.814 88.7834C100.736 88.9276 100.632 89.0436 100.501 89.1314C100.372 89.2176 100.229 89.2805 100.073 89.3203V89.37C100.242 89.3783 100.407 89.433 100.568 89.5341C100.73 89.6335 100.865 89.7752 100.971 89.9592C101.077 90.1431 101.13 90.3668 101.13 90.6303C101.13 90.8905 101.068 91.1242 100.946 91.3313C100.825 91.5368 100.638 91.7 100.384 91.821C100.13 91.9403 99.8064 92 99.412 92H97.4607ZM98.2288 91.3413H99.3374C99.7053 91.3413 99.9688 91.27 100.128 91.1275C100.287 90.985 100.367 90.8068 100.367 90.593C100.367 90.4323 100.326 90.2848 100.245 90.1506C100.164 90.0163 100.048 89.9094 99.8968 89.8299C99.7476 89.7504 99.5703 89.7106 99.3648 89.7106H98.2288V91.3413ZM98.2288 89.1115H99.2579C99.4302 89.1115 99.5852 89.0784 99.7227 89.0121C99.8619 88.9458 99.9722 88.853 100.053 88.7337C100.136 88.6127 100.178 88.4702 100.178 88.3061C100.178 88.0956 100.104 87.9192 99.9564 87.7766C99.8089 87.6341 99.5827 87.5629 99.2778 87.5629H98.2288V89.1115Z" fill="white"/>
<g filter="url(#filter1_d_48_6263)">
<path d="M11.25 121.25H180C181.658 121.25 183.248 121.909 184.42 123.081C185.592 124.253 186.25 125.843 186.25 127.5V158.75C186.25 160.408 185.592 161.998 184.42 163.17C183.248 164.342 181.658 165 180 165H11.25C9.59241 165 8.00269 164.342 6.83059 163.17C5.65848 161.998 5 160.408 5 158.75V127.5C5 125.843 5.65848 124.253 6.83059 123.081C8.00269 121.909 9.59241 121.25 11.25 121.25V121.25Z" fill="white"/>
</g>
<path d="M103.75 131.251H71.25C69.1789 131.251 67.5 132.93 67.5 135.001C67.5 137.072 69.1789 138.751 71.25 138.751H103.75C105.821 138.751 107.5 137.072 107.5 135.001C107.5 132.93 105.821 131.251 103.75 131.251Z" fill="#CCCCCC"/>
<path d="M126.25 147.501H71.25C69.1789 147.501 67.5 149.18 67.5 151.251C67.5 153.323 69.1789 155.001 71.25 155.001H126.25C128.321 155.001 130 153.323 130 151.251C130 149.18 128.321 147.501 126.25 147.501Z" fill="#F3F3F3"/>
<path d="M26.875 155.002C33.4334 155.002 38.7501 149.685 38.7501 143.127C38.7501 136.568 33.4334 131.252 26.875 131.252C20.3166 131.252 15 136.568 15 143.127C15 149.685 20.3166 155.002 26.875 155.002Z" fill="#B2B2B2"/>
<path d="M25.3359 142.246C25.3094 142.011 25.2 141.829 25.0078 141.7C24.8156 141.569 24.5736 141.503 24.282 141.503C24.0732 141.503 23.8925 141.536 23.7401 141.603C23.5876 141.667 23.4691 141.757 23.3846 141.871C23.3017 141.984 23.2603 142.112 23.2603 142.256C23.2603 142.377 23.2885 142.482 23.3448 142.57C23.4028 142.657 23.4782 142.731 23.571 142.791C23.6655 142.849 23.7666 142.898 23.8743 142.938C23.982 142.976 24.0856 143.007 24.185 143.032L24.6822 143.161C24.8446 143.201 25.0111 143.255 25.1818 143.323C25.3525 143.391 25.5108 143.48 25.6566 143.591C25.8024 143.702 25.9201 143.84 26.0096 144.004C26.1007 144.168 26.1463 144.364 26.1463 144.593C26.1463 144.881 26.0717 145.137 25.9226 145.361C25.7751 145.585 25.5605 145.761 25.2788 145.891C24.9987 146.02 24.6598 146.085 24.2621 146.085C23.8809 146.085 23.5511 146.024 23.2727 145.903C22.9943 145.782 22.7764 145.611 22.619 145.388C22.4615 145.165 22.3745 144.9 22.358 144.593H23.1286C23.1435 144.777 23.2031 144.93 23.3075 145.053C23.4136 145.174 23.5487 145.264 23.7127 145.324C23.8784 145.382 24.0599 145.411 24.2571 145.411C24.4742 145.411 24.6673 145.377 24.8363 145.309C25.007 145.239 25.1412 145.143 25.239 145.021C25.3368 144.896 25.3857 144.751 25.3857 144.586C25.3857 144.435 25.3426 144.311 25.2564 144.215C25.1719 144.119 25.0567 144.04 24.9109 143.977C24.7667 143.914 24.6035 143.858 24.4212 143.81L23.8196 143.646C23.4119 143.535 23.0888 143.372 22.8501 143.156C22.6132 142.941 22.4947 142.656 22.4947 142.301C22.4947 142.008 22.5742 141.752 22.7333 141.533C22.8924 141.314 23.1078 141.144 23.3796 141.023C23.6514 140.901 23.958 140.839 24.2994 140.839C24.6441 140.839 24.9482 140.9 25.2116 141.021C25.4768 141.142 25.6856 141.308 25.8381 141.521C25.9905 141.731 26.0701 141.973 26.0767 142.246H25.3359ZM29.8408 142.246C29.8143 142.011 29.7049 141.829 29.5127 141.7C29.3205 141.569 29.0785 141.503 28.7868 141.503C28.578 141.503 28.3974 141.536 28.2449 141.603C28.0925 141.667 27.974 141.757 27.8895 141.871C27.8066 141.984 27.7652 142.112 27.7652 142.256C27.7652 142.377 27.7934 142.482 27.8497 142.57C27.9077 142.657 27.9831 142.731 28.0759 142.791C28.1704 142.849 28.2715 142.898 28.3792 142.938C28.4869 142.976 28.5905 143.007 28.6899 143.032L29.1871 143.161C29.3495 143.201 29.516 143.255 29.6867 143.323C29.8574 143.391 30.0157 143.48 30.1615 143.591C30.3073 143.702 30.425 143.84 30.5145 144.004C30.6056 144.168 30.6512 144.364 30.6512 144.593C30.6512 144.881 30.5766 145.137 30.4275 145.361C30.28 145.585 30.0654 145.761 29.7836 145.891C29.5036 146.02 29.1647 146.085 28.767 146.085C28.3858 146.085 28.056 146.024 27.7776 145.903C27.4992 145.782 27.2813 145.611 27.1238 145.388C26.9664 145.165 26.8794 144.9 26.8628 144.593H27.6334C27.6483 144.777 27.708 144.93 27.8124 145.053C27.9185 145.174 28.0535 145.264 28.2176 145.324C28.3833 145.382 28.5648 145.411 28.762 145.411C28.9791 145.411 29.1721 145.377 29.3412 145.309C29.5119 145.239 29.6461 145.143 29.7439 145.021C29.8416 144.896 29.8905 144.751 29.8905 144.586C29.8905 144.435 29.8474 144.311 29.7613 144.215C29.6768 144.119 29.5616 144.04 29.4157 143.977C29.2716 143.914 29.1083 143.858 28.926 143.81L28.3245 143.646C27.9168 143.535 27.5937 143.372 27.355 143.156C27.118 142.941 26.9996 142.656 26.9996 142.301C26.9996 142.008 27.0791 141.752 27.2382 141.533C27.3973 141.314 27.6127 141.144 27.8845 141.023C28.1563 140.901 28.4629 140.839 28.8042 140.839C29.1489 140.839 29.453 140.9 29.7165 141.021C29.9817 141.142 30.1905 141.308 30.343 141.521C30.4954 141.731 30.575 141.973 30.5816 142.246H29.8408Z" fill="white"/>
<g filter="url(#filter2_d_48_6263)">
<path d="M180 13.7501H11.25C7.79823 13.7501 5 16.5483 5 20.0001V51.2502C5 54.702 7.79823 57.5002 11.25 57.5002H180C183.452 57.5002 186.25 54.702 186.25 51.2502V20.0001C186.25 16.5483 183.452 13.7501 180 13.7501Z" fill="white"/>
</g>
<path d="M101.25 23.7505H68.75C66.6789 23.7505 65 25.4294 65 27.5005C65 29.5716 66.6789 31.2505 68.75 31.2505H101.25C103.321 31.2505 105 29.5716 105 27.5005C105 25.4294 103.321 23.7505 101.25 23.7505Z" fill="#CCCCCC"/>
<path d="M123.75 40.0009H68.75C66.6789 40.0009 65 41.6798 65 43.7509C65 45.8219 66.6789 47.5009 68.75 47.5009H123.75C125.821 47.5009 127.5 45.8219 127.5 43.7509C127.5 41.6798 125.821 40.0009 123.75 40.0009Z" fill="#F3F3F3"/>
<path d="M43.125 47.5008C49.6834 47.5008 55.0001 42.1842 55.0001 35.6258C55.0001 29.0674 49.6834 23.7507 43.125 23.7507C36.5666 23.7507 31.25 29.0674 31.25 35.6258C31.25 42.1842 36.5666 47.5008 43.125 47.5008Z" fill="#B2B2B2"/>
<path d="M38.588 38.001H37.7727L39.6047 32.9101H40.4921L42.3241 38.001H41.5088L40.0695 33.8348H40.0298L38.588 38.001ZM38.7247 36.0074H41.3696V36.6537H38.7247V36.0074ZM43.4894 38.001H42.674L44.5061 32.9101H45.3935L47.2255 38.001H46.4102L44.9709 33.8348H44.9311L43.4894 38.001ZM43.6261 36.0074H46.271V36.6537H43.6261V36.0074Z" fill="white"/>
<defs>
<filter id="filter0_d_48_6263" x="56.748" y="65.5002" width="191.25" height="53.75" filterUnits="userSpaceOnUse" color-interpolation-filters="sRGB">
<feFlood flood-opacity="0" result="BackgroundImageFix"/>
<feColorMatrix in="SourceAlpha" type="matrix" values="0 0 0 0 0 0 0 0 0 0 0 0 0 0 0 0 0 0 127 0" result="hardAlpha"/>
<feOffset dx="3" dy="3"/>
<feGaussianBlur stdDeviation="2.5"/>
<feColorMatrix type="matrix" values="0 0 0 0 0.230539 0 0 0 0 0.370572 0 0 0 0 0.482993 0 0 0 0.1 0"/>
<feBlend mode="normal" in2="BackgroundImageFix" result="effect1_dropShadow_48_6263"/>
<feBlend mode="normal" in="SourceGraphic" in2="effect1_dropShadow_48_6263" result="shape"/>
</filter>
<filter id="filter1_d_48_6263" x="0" y="119.25" width="191.25" height="53.75" filterUnits="userSpaceOnUse" color-interpolation-filters="sRGB">
<feFlood flood-opacity="0" result="BackgroundImageFix"/>
<feColorMatrix in="SourceAlpha" type="matrix" values="0 0 0 0 0 0 0 0 0 0 0 0 0 0 0 0 0 0 127 0" result="hardAlpha"/>
<feOffset dy="3"/>
<feGaussianBlur stdDeviation="2.5"/>
<feColorMatrix type="matrix" values="0 0 0 0 0.230539 0 0 0 0 0.370572 0 0 0 0 0.482993 0 0 0 0.1 0"/>
<feBlend mode="normal" in2="BackgroundImageFix" result="effect1_dropShadow_48_6263"/>
<feBlend mode="normal" in="SourceGraphic" in2="effect1_dropShadow_48_6263" result="shape"/>
</filter>
<filter id="filter2_d_48_6263" x="0" y="11.7501" width="191.25" height="53.7501" filterUnits="userSpaceOnUse" color-interpolation-filters="sRGB">
<feFlood flood-opacity="0" result="BackgroundImageFix"/>
<feColorMatrix in="SourceAlpha" type="matrix" values="0 0 0 0 0 0 0 0 0 0 0 0 0 0 0 0 0 0 127 0" result="hardAlpha"/>
<feOffset dy="3"/>
<feGaussianBlur stdDeviation="2.5"/>
<feColorMatrix type="matrix" values="0 0 0 0 0.230539 0 0 0 0 0.370572 0 0 0 0 0.482993 0 0 0 0.1 0"/>
<feBlend mode="normal" in2="BackgroundImageFix" result="effect1_dropShadow_48_6263"/>
<feBlend mode="normal" in="SourceGraphic" in2="effect1_dropShadow_48_6263" result="shape"/>
</filter>
</defs>
</svg>
