<?xml version="1.0" encoding="UTF-8"?>
<svg id="Layer_2" data-name="Layer 2" xmlns="http://www.w3.org/2000/svg" viewBox="0 0 363.82 435.78">
  <defs>
    <style>
      .cls-1 {
        fill: #4a3aff;
        stroke-width: 0px;
      }
    </style>
  </defs>
  <g id="Layer_4_copy" data-name="Layer 4 copy">
    <g id="Layer_3_copy" data-name="Layer 3 copy">
      <path class="cls-1" d="m353.66,57.27L196.58,1.91c-8.29-2.5-17.12-2.55-25.43-.16L23.92,52.16C9.6,57.12,0,70.6,0,85.76v140.74s1.86,144.53,174.9,208.03c4.52,1.66,9.51,1.66,14.03,0,173.04-63.49,174.9-207.68,174.9-207.68V71.55c0-6.44-4.08-12.17-10.17-14.28Zm-90.19,246.93l-34.4,27.41c-6.91,5.51-17.27.53-17.33-8.32l-.1-16.58c-.02-3.77-2.07-7.26-5.37-9.16l-114.36-66.03c-3.3-1.9-5.34-5.4-5.37-9.16l-.25-40.53c-.05-8.12,8.77-13.14,15.87-9.03l159.73,92.22c3.3,1.9,5.34,5.4,5.37,9.17l.13,21.84c.02,3.19-1.42,6.2-3.91,8.19Zm-6.58-58.36l-166.82-96.32c-2.2-1.27-3.56-3.6-3.58-6.11l-.3-48.64c-.03-5.41,5.85-8.76,10.59-6.03l166.82,96.32c2.2,1.27,3.56,3.6,3.58,6.11l.3,48.64c.03,5.41-5.85,8.76-10.59,6.03Z"/>
    </g>
  </g>
</svg>